<?xml version="1.0" encoding="utf-8"?>
<!-- Generator: Adobe Illustrator 19.1.0, SVG Export Plug-In . SVG Version: 6.00 Build 0)  -->
<svg version="1.1" id="Layer_1" xmlns="http://www.w3.org/2000/svg" xmlns:xlink="http://www.w3.org/1999/xlink" x="0px" y="0px"
	 viewBox="0 0 414 414.2" style="enable-background:new 0 0 414 414.2;" xml:space="preserve">
<style type="text/css">
	.st0{fill-rule:evenodd;clip-rule:evenodd;fill:#F2F2F2;}
</style>
<g>
	<g>
		<path class="st0" d="M404,207.2c0-108.8-88.2-197-197-197c-108.8,0-197,88.2-197,197C10,312.6,92.7,398.7,196.8,404V302.5
			c0-16.4-34-25-34-51c4.2-53.4,8.4-106.9,12.6-160.4c1.9-1,3.7-2.1,5.6,0.1c0.9,48.5,1.9,97.1,2.8,145.6c1.6,3.1,3.6,3.1,6,0
			c1.2-48.4,2.4-96.9,3.7-145.3c2.1-2.4,3.8-2.3,6.4,0.1c1.3,48.4,3.1,96.8,4.3,145.2c2.1,2.3,4.2,2.3,6.3-0.1
			c1.3-48.3,2.6-96.7,3.9-145c1.9-2.4,3.7-2.4,5.6,0c1.5,48.3,2.9,96.7,4.4,145c2.3,3.1,4.5,3.1,6.8,0c1-48.3,2.1-96.7,3.1-145
			c2.1-2.1,4-2,5.6,0.1l11.4,159.6c0,26-34,34.6-34,51l0,101.5C321.3,398.7,404,312.6,404,207.2z"/>
	</g>
</g>
</svg>
